<svg xmlns="http://www.w3.org/2000/svg" width="32" height="32" id="chat">
  <g transform="translate(0 -1020.362)">
    <circle cx="16" cy="1036.362" r="16" fill="#1d67b1"></circle>
    <path fill="#fff" d="M3 2c-.583 0-1.11.154-1.479.521C1.154 2.89 1 3.417 1 4v5c0 .583.156 1.111.525 1.475.37.363.895.51 1.475.51l1.74.03a.5.5 0 0 0 .01 0h3.023l3.346 3.817a.5.5 0 0 0 .875-.33l.008-3.498.998-.02c.58 0 1.105-.146 1.475-.51.37-.363.525-.89.525-1.474V4c0-.583-.156-1.108-.523-1.47-.368-.364-.887-.513-1.463-.528a.5.5 0 0 0-.014 0H3V2Zm0 1h9.986c.424.011.655.112.787.242.133.13.227.341.227.758v5c0 .417-.094.634-.225.762-.13.128-.356.222-.775.222a.5.5 0 0 0-.012 0l-1.498.032a.5.5 0 0 0-.488.5l-.006 2.66-2.621-2.989a.5.5 0 0 0-.375-.17H4.754L3.01 9.985a.5.5 0 0 0-.01 0c-.42 0-.645-.095-.775-.222C2.095 9.634 2 9.417 2 9V4c0-.416.096-.64.229-.771C2.36 3.096 2.583 3 3 3Z" color="#000" font-family="sans-serif" font-weight="400" overflow="visible" style="line-height:normal;text-indent:0;text-align:start;text-decoration-line:none;text-decoration-style:solid;text-decoration-color:#000;text-transform:none;block-progression:tb;isolation:auto;mix-blend-mode:normal" transform="translate(8 1029.362)"></path>
  </g>
</svg>
